/vscmnt/brussel_pixiu_data/_data_brussel/112/vsc11236/PredSimResults/SUBJ10mtu3D/worker3.mot
version=1
nRows=5
nColumns=50
inDegrees=yes
endheader
                time	         pelvis_tilt	         pelvis_list	     pelvis_rotation	           pelvis_tx	           pelvis_ty	           pelvis_tz	       hip_flexion_r	     hip_adduction_r	      hip_rotation_r	        knee_angle_r	       ankle_angle_r	         mtp_angle_r	       hip_flexion_l	     hip_adduction_l	      hip_rotation_l	        knee_angle_l	       ankle_angle_l	         mtp_angle_l	    lumbar_extension	      lumbar_bending	     lumbar_rotation	 ercspn_r/activation	 intobl_r/activation	 extobl_r/activation	    abd_r/activation	    add_r/activation	hamstrings_r/activation	bifemsh_r/activation	glut_max_r/activation	iliopsoas_r/activation	rect_fem_r/activation	  vasti_r/activation	gastroc_r/activation	 soleus_r/activation	tib_ant_r/activation	 ercspn_l/activation	 intobl_l/activation	 extobl_l/activation	    abd_l/activation	    add_l/activation	hamstrings_l/activation	bifemsh_l/activation	glut_max_l/activation	iliopsoas_l/activation	rect_fem_l/activation	  vasti_l/activation	gastroc_l/activation	 soleus_l/activation	tib_ant_l/activation	
          0.94847635	          3.78087907	         -1.52157076	          2.24366616	          1.14765638	          0.83056097	          0.00266811	          1.09692141	          3.39155731	        -14.10746122	        -49.41899504	          7.47715511	         27.17175768	         25.75467193	          3.96846805	          5.10188232	        -45.16431652	         17.36263408	          0.07679729	        -10.93887790	         -0.61305503	          5.86734111	          0.10382220	          0.19295059	          0.00999999	          0.01168548	          0.14409856	          0.02016498	          0.12834954	          0.01650327	          0.50993965	          0.01350644	          0.02032384	          0.15745386	          0.19437598	          0.00999999	          0.12368806	          0.05946942	          0.02232284	          0.08164883	          0.09727454	          0.01000000	          0.07642511	          0.00999999	          0.33216276	          0.24282524	          0.11440031	          0.01000000	          0.19765666	          0.20461127	
          0.95479952	          3.74841941	         -1.96705013	          2.80778903	          1.15538706	          0.82901896	          0.00281298	          1.70783909	          3.60880880	        -14.90266074	        -51.16484256	          6.34029340	         26.80339354	         25.39802746	          3.89618151	          5.53432724	        -44.92484934	         17.32891730	          0.11040160	        -10.90645663	         -0.50130408	          5.98549676	          0.10983761	          0.19042299	          0.01000000	          0.01057141	          0.13036039	          0.01824247	          0.14859580	          0.01492987	          0.47656267	          0.01221880	          0.01838618	          0.17074392	          0.17584440	          0.00999999	          0.11189578	          0.05379967	          0.02019461	          0.07386453	          0.08800049	          0.01000002	          0.06913883	          0.00999999	          0.30049474	          0.21967456	          0.11991441	          0.00999999	          0.21936092	          0.18510387	
          0.96112270	          3.71074237	         -2.39606175	          3.35497467	          1.16316717	          0.82727903	          0.00296354	          2.40820425	          3.78349261	        -15.62853280	        -53.01569634	          5.14139908	         26.30712496	         24.98874015	          3.77758596	          5.98463907	        -45.04938552	         17.54993590	          0.28776733	        -10.85800221	         -0.40072209	          6.07606653	          0.11850468	          0.17919663	          0.01000012	          0.00999999	          0.11793201	          0.01650326	          0.17348061	          0.01350647	          0.43121267	          0.01105392	          0.01663327	          0.20307118	          0.15907959	          0.00999999	          0.10122776	          0.04867047	          0.01826928	          0.07380493	          0.07961063	          0.01000000	          0.06254721	          0.01934226	          0.27184592	          0.19873104	          0.16497759	          0.05068399	          0.25072544	          0.16745628	
          0.96744588	          3.66662647	         -2.78076092	          3.88372180	          1.17097169	          0.82539648	          0.00315795	          3.18910490	          3.89107705	        -16.28528099	        -54.94548368	          3.87604654	         25.67698693	         24.53230421	          3.59539936	          6.61989390	        -45.33041443	         18.36655773	          0.66930459	        -10.79837127	         -0.34677128	          6.13597781	          0.15584781	          0.17157767	          0.03010596	          0.00999999	          0.19740547	          0.01492986	          0.17369768	          0.01221878	          0.39010136	          0.01000016	          0.01504747	          0.20663493	          0.14391313	          0.00999999	          0.09157683	          0.04403028	          0.01652751	          0.13207260	          0.07202064	          0.01000001	          0.05658403	          0.02033003	          0.24592844	          0.17978425	          0.20842749	          0.04585184	          0.25723549	          0.15149119	
          0.97376905	          3.61591595	         -3.12140843	          4.39548865	          1.17875281	          0.82345118	          0.00334142	          4.04072423	          3.92828380	        -16.88375368	        -56.91732149	          2.52482426	         24.90671695	         24.07365063	          3.41183526	          7.31470865	        -45.62463825	         19.34778726	          1.15728667	        -10.73377306	         -0.33004646	          6.16940732	          0.16641328	          0.16360407	          0.02723569	          0.00999999	          0.17858509	          0.01350646	          0.18073745	          0.01105386	          0.35290955	          0.01000013	          0.01361286	          0.21801947	          0.13019261	          0.00999999	          0.08284600	          0.03983249	          0.01495179	          0.17313141	          0.06515428	          0.01000003	          0.05118938	          0.01839180	          0.22248190	          0.16264383	          0.26017290	          0.04148038	          0.27998169	          0.13704819	
